# xmcd
#
# Track frame offsets:
#	150
#	15077
#	36784
#	50461
#	66220
#	83985
#	114297
#	131982
#	151842
#	165654
#	191430
#	211017
#	227262
#	246987
#
# Disc length: 3582 seconds
#
# Revision: 1
# Processed by: cddbd v1.5.2PL0 Copyright (c) Steve Scherf et al.
# Submitted via: audiograbber 1.83.01
#
DISCID=a70dfc0e
DTITLE=John Mayall and The Bluesbreakers - In the Palace of the King
DYEAR=1900
DGENRE=
TTITLE0=You know that you love me
TTITLE1=Going down
TTITLE2=Some other day, some other time
TTITLE3=Palace of the King
TTITLE4=I'd rather be blind
TTITLE5=Time to go
TTITLE6=Big legged woman
TTITLE7=Now I've got a woman
TTITLE8=I love you more every day
TTITLE9=Help me through the day
TTITLE10=Cannonball shuffle
TTITLE11=You've got me licked
TTITLE12=King of the Kings
TTITLE13=Living on the highway
EXTD=
EXTT0=
EXTT1=
EXTT2=
EXTT3=
EXTT4=
EXTT5=
EXTT6=
EXTT7=
EXTT8=
EXTT9=
EXTT10=
EXTT11=
EXTT12=
EXTT13=
PLAYORDER=
